PathFileType	4	(X/Y/Z)	C:\Users\Basilio\Documents\Thesis Gigler\squatting_fais\c3dfiles\044\SLS_front_pre1\markers_experimental.trc
DataRate	CameraRate	NumFrames	NumMarkers	Units	OrigDataRate	OrigDataStartFrame	OrigNumFrames
200.000000	200.000000	4	60	mm	200.000000	588	1570
Frame#	Time	FHD			LBHD			RBHD			C7			T10			CLAV			LSHO			LUUPA			LMUPA			LDUPA			LLEP			LMEP			LUL			LRFIN			RSHO			RUPA1			RMUPA			RDUPA			RLEP			RMEP			RUL			RUFIN			LASI			RASI			USACR			LSACR			LTHI1			LTHI2			LTHI3			LTHI4			LLFC			LMFC			LTIB1			LTIB2			LTIB3			LTIB4			LLMAL			LMMAL			LHEE			LMT1			LMT2			LMT5			RTHI			RTHI2			RTHI3			RTHI4			RLFC			RMFC			RTIB1			RTIB2			RTIB3			RTIB4			RLMAL			RHEE			RMT1			RMT2			RMT5			RMMAL			RSACR			LRAD			
		X1	Y1	Z1	X2	Y2	Z2	X3	Y3	Z3	X4	Y4	Z4	X5	Y5	Z5	X6	Y6	Z6	X7	Y7	Z7	X8	Y8	Z8	X9	Y9	Z9	X10	Y10	Z10	X11	Y11	Z11	X12	Y12	Z12	X13	Y13	Z13	X14	Y14	Z14	X15	Y15	Z15	X16	Y16	Z16	X17	Y17	Z17	X18	Y18	Z18	X19	Y19	Z19	X20	Y20	Z20	X21	Y21	Z21	X22	Y22	Z22	X23	Y23	Z23	X24	Y24	Z24	X25	Y25	Z25	X26	Y26	Z26	X27	Y27	Z27	X28	Y28	Z28	X29	Y29	Z29	X30	Y30	Z30	X31	Y31	Z31	X32	Y32	Z32	X33	Y33	Z33	X34	Y34	Z34	X35	Y35	Z35	X36	Y36	Z36	X37	Y37	Z37	X38	Y38	Z38	X39	Y39	Z39	X40	Y40	Z40	X41	Y41	Z41	X42	Y42	Z42	X43	Y43	Z43	X44	Y44	Z44	X45	Y45	Z45	X46	Y46	Z46	X47	Y47	Z47	X48	Y48	Z48	X49	Y49	Z49	X50	Y50	Z50	X51	Y51	Z51	X52	Y52	Z52	X53	Y53	Z53	X54	Y54	Z54	X55	Y55	Z55	X56	Y56	Z56	X57	Y57	Z57	X58	Y58	Z58	X59	Y59	Z59	X60	Y60	Z60	

589	2.94	-172.8516235351563	1654.135620117188	-1067.353515625	-305.8411865234376	1632.56103515625	-1149.372436523438	-357.6130981445313	1627.544311523438	-991.7379150390627	-401.9976806640626	1468.04736328125	-1071.919799804688	-493.682342529297	1182.092163085938	-1034.070190429688	-274.3447570800782	1396.648193359375	-1060.52392578125	-301.3629455566407	1453.544189453125	-1211.782348632813	-146.0574340820313	1394.236694335938	-1305.447143554688	-117.361442565918	1403.016235351563	-1265.058227539063	-78.97254180908205	1377.362426757813	-1305.156127929688	-20.23992347717286	1367.748901367188	-1293.9150390625	-43.34514617919923	1293.091918945313	-1273.694580078125	217.6451721191407	1352.513061523438	-1145.004760742188	234.9713745117188	1372.109130859375	-1040.49365234375	-321.8595886230469	1470.76953125	-911.8291015625002	-183.6697998046875	1420.769775390625	-795.2467041015627	-149.1558532714844	1428.072509765625	-831.9937133789065	-116.3729553222657	1406.17626953125	-786.8709106445315	-54.83687591552736	1396.548706054688	-792.3572998046877	-71.66915893554689	1317.288940429688	-803.627380371094	202.0600585937501	1361.265502929688	-903.5308837890627	217.9990234375001	1350.484130859375	-1019.458740234375	-352.3308105468751	960.4239501953127	-1102.516723632813	-368.6697082519532	959.8965454101565	-888.3776855468752	-524.6648559570314	1020.973571777344	-1006.284790039063	-531.9536132812501	987.0498657226565	-1031.060668945313	-350.5000000000001	734.9703979492189	-1182.89013671875	-280.7195434570313	687.8270874023439	-1182.61328125	-242.2567596435547	713.4027099609376	-1174.499267578125	-275.0977478027344	627.9133911132814	-1168.819946289063	-189.8900909423828	501.3662414550782	-1145.122436523438	-183.460678100586	508.3629150390626	-1024.353149414063	-203.0967407226563	338.0235595703126	-1044.958984375	-241.2857513427735	290.8061523437501	-1107.693725585938	-211.9413757324219	285.2349243164063	-1069.988525390625	-252.6237335205079	222.6112213134766	-1029.965698242188	-339.5843811035157	123.2543106079102	-1064.151977539063	-316.7396850585938	140.3395690917969	-980.930114746094	-407.7999267578126	110.4875411987305	-1010.498962402344	-201.9846801757813	63.67082595825197	-985.473815917969	-200.8204498291016	62.51700973510744	-1032.693237304688	-238.255355834961	47.93795013427735	-1079.205932617188	-300.2163696289063	740.2012939453126	-798.6174316406252	-232.0207672119141	736.9467773437501	-799.6189575195315	-212.8572082519532	762.2329101562501	-810.5256347656252	-189.2558746337891	664.3781738281251	-811.5845947265627	-117.3448333740235	587.3411865234376	-811.7510375976565	-120.9736328125	569.2835083007814	-931.0076293945315	-22.74395179748536	489.6102294921876	-831.8328857421877	-58.88780975341798	399.4284973144532	-777.3925781250002	-18.95858383178711	408.2188720703126	-797.1846313476565	9.873359680175783	363.6396179199219	-818.9686279296877	12.77623176574707	197.0018310546876	-788.5349731445315	-19.1766357421875	129.5402526855469	-826.7864990234377	167.7637023925782	220.1546630859376	-867.523376464844	174.9798278808594	227.2053375244141	-831.0972290039065	156.8668975830078	195.7130737304688	-774.958435058594	24.2779884338379	206.7407989501954	-873.8338012695315	nan	nan	nan	nan	nan	nan	
590	2.945	-172.5747833251953	1653.484497070313	-1067.476684570313	-305.3541259765626	1632.250854492188	-1149.866088867188	-357.5691528320313	1626.76513671875	-991.8135986328127	-401.7610778808595	1467.208862304688	-1071.911987304688	-493.9828491210939	1181.756469726563	-1033.848022460938	-274.2822570800782	1395.557983398438	-1060.470581054688	-301.2075195312501	1452.748291015625	-1211.72021484375	-145.6137847900391	1393.237670898438	-1305.516723632813	-117.5007858276367	1402.261840820313	-1264.919189453125	-79.02097320556642	1376.898315429688	-1305.0537109375	-20.20016860961914	1366.976684570313	-1293.829223632813	-43.41912841796876	1292.138427734375	-1273.328247070313	217.7532958984376	1352.115356445313	-1144.968872070313	235.1480712890626	1371.563110351563	-1040.573120117188	-321.7893371582032	1470.300415039063	-911.879821777344	-183.4567565917969	1419.851440429688	-795.0780029296877	-149.0521850585938	1427.6064453125	-832.288513183594	-116.2631454467774	1405.615478515625	-786.8991699218752	-54.70590972900392	1395.860717773438	-792.1077270507815	-71.71307373046876	1316.62841796875	-803.5418090820315	202.2553710937501	1360.891967773438	-903.4395141601565	218.0598602294922	1349.870849609375	-1019.338928222656	-353.0202636718751	959.8701782226565	-1102.473510742188	-368.9493103027344	958.9148559570315	-888.5686645507815	-525.1486206054689	1019.765319824219	-1005.892700195313	-532.4241943359376	986.4622802734377	-1030.813720703125	-350.8367919921876	734.6158447265626	-1183.033569335938	-280.7905273437501	687.1417236328126	-1183.205688476563	-242.528793334961	713.3715820312501	-1175.05810546875	-275.3576660156251	627.6557617187501	-1169.111694335938	-189.4439697265625	500.7835388183595	-1145.526489257813	-183.3034057617188	508.2291564941407	-1024.849609375	-203.1117553710938	337.9950866699219	-1045.16455078125	-241.4808349609376	290.5341186523438	-1108.1611328125	-211.9250488281251	284.9095458984376	-1070.305786132813	-252.6638793945313	222.5978393554688	-1030.1162109375	-339.6137084960938	123.2934036254883	-1064.185180664063	-316.7235107421876	140.3359069824219	-981.0198364257815	-407.7467651367189	110.4841613769532	-1010.548278808594	-201.9006347656251	63.72902679443361	-985.4165649414065	-200.9349670410157	62.46339035034181	-1032.741455078125	-238.2881622314454	47.84228134155274	-1079.296752929688	-300.2673339843751	739.7935791015626	-798.7698364257815	-232.045394897461	736.7932128906251	-799.756042480469	-212.9121551513672	761.9650268554689	-810.4898681640627	-189.1747589111328	664.2636718750001	-811.7871704101565	-117.0872039794922	587.3638916015626	-811.822937011719	-120.5525283813477	569.3557128906251	-931.198181152344	-22.23621368408203	489.6714782714845	-832.039978027344	-58.489315032959	399.5454101562501	-777.6394653320315	-18.40618133544922	408.4304199218751	-797.6765747070315	10.5305871963501	364.2573547363282	-819.526794433594	13.47062873840332	197.2077789306641	-789.1867675781252	-18.89840126037598	130.1932220458985	-826.984313964844	168.6793975830078	220.7680053710938	-868.0690917968752	176.195297241211	227.5548400878907	-831.4948730468752	157.8770599365235	195.9108276367188	-775.563903808594	25.21714210510255	207.1034088134766	-874.4956665039065	nan	nan	nan	nan	nan	nan	
591	2.95	-172.803207397461	1652.7470703125	-1067.471801757813	-305.4545593261719	1630.823486328125	-1149.665893554688	-357.3069763183594	1625.73193359375	-991.906921386719	-401.7541809082032	1466.56884765625	-1071.875244140625	-494.2274780273439	1181.0810546875	-1033.57666015625	-274.2500915527344	1394.766479492188	-1060.330200195313	-301.1881408691407	1451.84765625	-1211.632690429688	-145.9565124511719	1392.611572265625	-1305.261596679688	-117.2147827148438	1401.499267578125	-1264.885131835938	-78.87165832519533	1376.115112304688	-1305.023315429688	-20.08576774597168	1366.178466796875	-1293.776245117188	-43.33076095581055	1291.48291015625	-1273.1787109375	217.7052459716797	1351.6640625	-1144.88525390625	235.2894134521485	1370.975952148438	-1040.534301757813	-321.1180725097657	1469.601928710938	-911.5535888671877	-183.4801483154297	1419.766845703125	-795.8283691406252	-148.8168029785157	1426.77001953125	-832.020690917969	-116.0640182495117	1404.846557617188	-786.8432617187502	-54.54406738281251	1395.311157226563	-792.1113281250002	-71.30162811279298	1315.7734375	-803.5634765625002	202.6501464843751	1360.097534179688	-903.4910278320315	219.1513671875001	1349.447875976563	-1018.727111816406	-353.6201171875001	959.222106933594	-1102.421752929688	-369.1381835937501	958.223327636719	-888.3431396484377	-525.6653442382814	1019.648742675781	-1005.616943359375	-533.0666503906251	986.1123046875002	-1030.607177734375	-351.4009399414063	734.1450805664064	-1183.214111328125	-281.1836242675782	686.9286499023439	-1183.494140625	-242.8536682128907	713.3135986328126	-1175.375122070313	-275.6086120605469	627.3909912109376	-1169.455322265625	-189.4394683837891	500.688690185547	-1145.949951171875	-183.2912139892578	508.3732299804689	-1025.3515625	-203.1385498046876	337.9281921386719	-1045.4736328125	-241.4897918701172	290.4257202148438	-1108.391235351563	-212.0321502685547	285.2302551269532	-1070.557006835938	-252.6754913330079	222.5790252685547	-1030.327392578125	-339.6039123535157	123.2117233276367	-1064.248291015625	-316.7940979003907	140.4032440185547	-981.1475219726565	-407.7302551269532	110.5288543701172	-1010.587463378906	-201.7874450683594	63.73252868652345	-985.4800415039065	-200.8647766113282	62.53450393676759	-1032.806884765625	-238.3041381835938	47.88279342651368	-1079.328002929688	-300.2466430664063	739.3412475585939	-798.9309692382815	-232.0435333251954	736.1939697265626	-799.820007324219	-212.8566589355469	761.7293090820314	-810.600280761719	-189.1903228759766	664.3330688476564	-811.989196777344	-116.8047485351563	587.2732543945314	-812.0257568359377	-120.0858535766602	569.6845092773439	-931.394958496094	-21.73631858825684	489.8505859375001	-832.4559326171877	-57.71856689453126	399.5993041992189	-778.2435302734377	-17.82611083984375	408.7460021972657	-798.1218261718752	11.02882480621338	364.7377014160157	-820.518981933594	14.33107471466065	197.2703857421876	-789.6990356445315	-17.5334587097168	130.3443756103516	-828.2474365234377	169.3377380371094	221.3276977539063	-868.6101684570315	176.7981872558594	228.2183074951172	-831.9554443359377	158.7038269042969	196.662582397461	-776.430847167969	26.15982627868653	207.3525848388672	-875.262145996094	nan	nan	nan	nan	nan	nan	
592	2.955	-172.4638366699219	1651.803833007813	-1067.475952148438	-305.2511901855469	1629.997436523438	-1149.663818359375	-357.1672058105469	1624.926391601563	-991.9888305664065	-401.8816528320314	1466.2568359375	-1072.221435546875	-494.477508544922	1180.56494140625	-1033.328735351563	-274.4351501464844	1394.034912109375	-1060.22216796875	-301.0675354003907	1451.048583984375	-1211.640014648438	-146.0713806152344	1392.013305664063	-1305.12744140625	-117.1372299194336	1400.929077148438	-1264.86962890625	-78.79936981201173	1375.242553710938	-1305.03515625	-20.67891120910645	1366.071166992188	-1293.39306640625	-43.11853790283204	1291.11279296875	-1273.20361328125	217.9795074462891	1350.721923828125	-1144.515258789063	234.9895782470704	1370.902099609375	-1040.445678710938	-320.8197326660157	1468.771606445313	-911.5942382812502	-183.4540405273438	1419.23291015625	-795.800476074219	-148.6765594482422	1426.343627929688	-832.073181152344	-115.924789428711	1404.28125	-786.9359130859377	-54.38540267944337	1394.763549804688	-792.093933105469	-71.10780334472658	1315.3486328125	-803.6571044921877	202.7445068359376	1359.57763671875	-903.3247070312502	219.3123779296876	1348.92724609375	-1018.613037109375	-354.2394104003907	958.582946777344	-1102.482177734375	-369.3586425781251	957.7363281250002	-888.5891113281252	-526.0338134765626	1019.024291992188	-1005.272705078125	-533.3489990234376	985.537536621094	-1030.386474609375	-351.8395690917969	733.7109985351564	-1183.399047851563	-282.0665588378907	687.0196533203126	-1183.38330078125	-243.4331970214844	712.9651489257814	-1175.340454101563	-275.7891540527344	627.2830810546876	-1169.740112304688	-189.4250183105469	500.6585693359376	-1146.312133789063	-183.1846008300782	508.4491577148439	-1025.779052734375	-203.1209869384766	337.7390441894532	-1045.814086914063	-241.6092529296876	290.2441711425782	-1108.637817382813	-212.0796203613282	285.2505493164063	-1070.78955078125	-252.6965942382813	222.4926147460938	-1030.4365234375	-339.6907653808594	123.1824417114258	-1064.3671875	-316.7339172363282	140.4089813232422	-981.227233886719	-407.521453857422	110.0717849731446	-1010.8095703125	-201.8002624511719	63.77529907226564	-985.5491333007815	-200.8330535888672	62.616024017334	-1032.944580078125	-238.2530822753907	47.87473297119141	-1079.364135742188	-300.2783508300782	738.7872924804689	-799.1397705078127	-231.8694305419922	735.7363281250001	-800.0035400390627	-212.9056091308594	761.5684204101564	-810.789733886719	-189.0007019042969	664.1792602539064	-812.314636230469	-116.1404190063477	587.2222290039064	-812.467468261719	-119.6462707519532	569.9643554687501	-931.631530761719	-21.13067436218262	489.8436889648439	-832.7712402343752	-57.03135299682619	399.7002258300782	-778.9429321289065	-17.25203514099121	408.919158935547	-798.635437011719	11.70940113067627	364.7068176269532	-821.0494384765627	15.42727947235108	197.5065002441407	-790.6445922851565	-16.70656394958496	130.6580047607422	-828.8834228515627	170.3560333251953	221.7511596679688	-869.326354980469	177.7687377929688	228.4779968261719	-832.618347167969	159.5551910400391	196.9753570556641	-776.9774169921877	27.03325080871583	207.7024230957032	-876.0457153320315	nan	nan	nan	nan	nan	nan	
